<?xml version="1.0" standalone="no"?>
<!DOCTYPE svg PUBLIC "-//W3C//DTD SVG 20010904//EN"
 "http://www.w3.org/TR/2001/REC-SVG-20010904/DTD/svg10.dtd">
<svg version="1.0" xmlns="http://www.w3.org/2000/svg"
 width="700.000000pt" height="700.000000pt" viewBox="0 0 700.000000 700.000000"
 preserveAspectRatio="xMidYMid meet">
<metadata>
Created by potrace 1.14, written by Peter Selinger 2001-2017
</metadata>
<g transform="translate(0.000000,700.000000) scale(0.100000,-0.100000)"
fill="#000000" stroke="none">
<path d="M250 6620 l0 -380 332 -2 333 -3 0 -2665 c1 -1466 -1 -2670 -3 -2677
-3 -8 -79 -12 -290 -12 -158 0 -306 0 -330 0 l-42 -1 0 -379 1 -380 1088 0
1088 0 -1 379 0 380 -25 1 c-14 0 -169 0 -343 0 -290 1 -318 2 -319 17 0 9 -1
1386 -1 3060 l-1 3042 -744 0 -743 0 0 -380z"/>
<path d="M4778 4835 c-2 -1 -37 -5 -78 -9 -41 -3 -86 -8 -100 -11 -129 -22
-166 -30 -243 -51 -404 -113 -717 -355 -883 -683 -50 -99 -94 -229 -108 -321
-18 -113 -21 -149 -20 -285 2 -419 162 -711 519 -949 169 -112 284 -165 695
-318 162 -61 324 -121 360 -135 36 -14 90 -34 120 -45 30 -11 71 -26 90 -34
19 -7 95 -36 169 -64 337 -129 504 -263 572 -458 25 -71 35 -209 20 -285 -30
-162 -162 -317 -346 -409 -110 -55 -210 -84 -356 -103 -66 -9 -279 -9 -336 0
-23 3 -55 8 -70 10 -15 2 -59 11 -98 20 -38 9 -77 18 -86 20 -28 6 -162 65
-206 91 -194 113 -320 324 -316 527 l1 27 -459 0 -459 0 0 -379 0 -380 208 0
c114 0 217 0 229 -1 15 0 39 -22 78 -74 182 -242 480 -426 810 -500 39 -9 84
-19 100 -23 17 -3 192 -8 390 -10 275 -2 377 1 430 11 39 8 84 16 100 19 108
18 306 83 441 147 418 196 679 535 749 970 18 114 13 369 -10 475 -40 191
-108 340 -221 491 -60 79 -181 197 -253 246 -25 18 -47 35 -49 40 -2 4 -8 8
-13 8 -5 0 -34 16 -66 36 -118 76 -296 152 -603 259 -58 20 -134 47 -170 60
-166 60 -326 116 -340 120 -8 2 -91 31 -185 65 -361 129 -522 233 -593 381
-50 105 -67 253 -42 365 34 152 160 295 326 371 126 57 278 87 454 87 84 1
248 -12 261 -19 3 -2 21 -7 40 -10 378 -66 639 -314 651 -618 l1 -37 454 0
453 0 0 383 0 382 -214 -2 -214 -1 -40 46 c-339 393 -713 549 -1339 557 -111
1 -203 1 -205 0z"/>
</g>
</svg>
