<?xml version="1.0" encoding="UTF-8"?>
<svg class="h-9 w-9 text-gray-200" xmlns="http://www.w3.org/2000/svg" viewBox="0 0 64 64" fill="currentColor">
    <title>GitHub</title>
    <path d="M20.578 33.02c-.05 0 .567 1.304.582 1.304 1.348 2.406 3.945 3.899 8.324 4.313-.625.468-1.375 1.351-1.48 2.375-.785.5-2.367.664-3.594.281-1.723-.531-2.383-3.883-4.96-3.406-.56.101-.446.465.034.773.786.5 1.528 1.125 2.098 2.457.438 1.024 1.36 2.848 4.27 2.848 1.156 0 1.968-.137 1.968-.137s.02 2.61.02 3.621c0 1.172-1.606 1.5-1.606 2.063 0 .222.532.246.957.246.848 0 2.602-.696 2.602-1.91 0-.965.02-4.211.02-4.782 0-1.242.675-1.636.675-1.636s.082 6.629-.16 7.52c-.289 1.046-.812.898-.812 1.362 0 .696 2.117.172 2.816-1.351.543-1.184.305-7.691.305-7.691l.578-.008s.035 2.976.012 4.336c-.02 1.41-.114 3.191.738 4.035.558.55 2.37 1.52 2.37.637 0-.516-.991-.942-.991-2.333v-6.414c.793 0 .676 2.106.676 2.106l.054 3.922s-.176 1.426 1.574 2.023c.614.215 1.934.27 1.997-.086.062-.355-1.59-.886-1.606-1.992-.008-.676.031-1.066.031-4 0-2.93-.398-4.012-1.793-4.875 4.305-.434 6.97-1.48 8.27-4.285.101.004.527-1.309.473-1.309.292-1.058.449-2.312.48-3.793-.008-4.023-1.965-5.445-2.344-6.113.555-3.043-.093-4.43-.39-4.906-1.11-.387-3.86 1-5.364 1.976-2.449-.703-7.629-.636-9.57.18-3.586-2.52-5.48-2.133-5.48-2.133s-1.227 2.157-.325 5.317c-1.18 1.476-2.058 2.52-2.058 5.289 0 1.562.187 2.957.61 4.176Zm11.899 28.113c-15.825 0-28.657-12.828-28.657-28.656C3.82 16.652 16.652 3.82 32.477 3.82c15.828 0 28.656 12.832 28.656 28.657 0 15.828-12.828 28.656-28.656 28.656Zm0 0"/>
</svg>
