<?xml version="1.0" encoding="UTF-8"?>
<svg class="h-9 w-9 text-gray-200" xmlns="http://www.w3.org/2000/svg" viewBox="0 0 64 64" fill="currentColor">
    <title>LinkedIn</title>
    <path d="M48.563 45.98V34.793c0-5.992-3.204-8.781-7.47-8.781-3.44 0-4.984 1.894-5.843 3.222V26.47h-6.484c.086 1.832 0 19.511 0 19.511h6.484V35.086c0-.582.043-1.164.215-1.582.469-1.164 1.535-2.371 3.324-2.371 2.348 0 3.285 1.789 3.285 4.41v10.441h6.489ZM21.93 23.805c2.261 0 3.672-1.5 3.672-3.371-.043-1.914-1.41-3.372-3.63-3.372-2.214 0-3.667 1.458-3.667 3.372 0 1.87 1.41 3.37 3.586 3.37Zm10.547 37.328c-15.825 0-28.657-12.828-28.657-28.656C3.82 16.652 16.652 3.82 32.477 3.82c15.828 0 28.656 12.832 28.656 28.657 0 15.828-12.828 28.656-28.656 28.656ZM25.176 45.98V26.47h-6.488V45.98Zm0 0"/>
</svg>
