<?xml version="1.0" encoding="UTF-8"?>
<svg class="h-9 w-9 text-gray-200" xmlns="http://www.w3.org/2000/svg" viewBox="0 0 64 64" fill="currentColor">
  <title>Symfony Connect</title>
  <path d="M32 4.219c-14.77 0-26.742 12.437-26.742 27.777C5.258 47.344 17.23 59.781 32 59.781c14.77 0 26.742-12.437 26.742-27.785C58.742 16.656 46.77 4.22 32 4.22Zm14.422 16.078c-1.238.047-2.094-.723-2.133-1.89-.016-.427.094-.802.375-1.239.277-.563.336-.629.328-.871-.027-.735-1.094-.766-1.387-.75-4.015.137-5.074 5.765-5.93 10.344l-.421 2.41c2.312.351 3.953-.078 4.867-.696 1.29-.87-.36-1.761-.152-2.75.21-1.007 1.093-1.496 1.797-1.515.98-.024 1.68 1.031 1.656 2.105-.035 1.774-2.3 4.215-6.832 4.114a15.12 15.12 0 0 1-1.535-.114l-.852 4.903c-.766 3.715-1.785 8.785-5.422 13.21-3.125 3.86-6.3 4.462-7.718 4.512-2.66.094-4.422-1.379-4.485-3.343-.058-1.903 1.559-2.942 2.621-2.977 1.418-.05 2.399 1.016 2.438 2.246.035 1.043-.489 1.367-.832 1.566-.23.192-.582.387-.567.817.008.184.196.605.79.586 1.12-.04 1.867-.617 2.39-1 2.586-2.242 3.582-6.149 4.887-13.258l.273-1.723c.45-2.312.942-4.89 1.692-7.46-1.825-1.426-2.918-3.196-5.372-3.891-1.683-.473-2.71-.07-3.43.879-.855 1.12-.57 2.582.255 3.437l1.363 1.567c1.672 2.007 2.586 3.566 2.242 5.668-.547 3.351-4.39 5.925-8.937 4.468-3.88-1.242-4.606-4.093-4.137-5.664.41-1.386 1.469-1.648 2.504-1.316 1.105.355 1.539 1.754 1.222 2.828-.035.117-.09.309-.207.566-.128.297-.367.555-.468.903-.25.843.863 1.441 1.64 1.691 1.735.55 3.426-.39 3.856-1.851.402-1.34-.418-2.274-.754-2.633l-1.645-1.828c-.75-.871-2.406-3.297-1.597-6.02.308-1.05.965-2.164 1.914-2.902 2.008-1.555 4.191-1.809 6.27-1.188 2.69.805 3.98 2.653 5.656 4.078.937-2.859 2.238-5.656 4.19-8.015 1.767-2.149 4.138-3.707 6.856-3.805 2.711-.094 4.766 1.188 4.832 3.211.028.86-.449 2.535-2.101 2.59Zm0 0"/>
</svg>
