<?xml version="1.0" encoding="UTF-8"?>
<svg class="h-9 w-9 text-gray-200" xmlns="http://www.w3.org/2000/svg" viewBox="0 0 64 64" fill="currentColor">
    <title>Twitter</title>
    <path d="M36.457 21.285c-2.5.91-4.082 3.258-3.902 5.828l.058.992-1-.12c-3.64-.465-6.824-2.044-9.527-4.696l-1.32-1.316-.34.972c-.719 2.164-.262 4.453 1.242 5.989.8.851.617.972-.762.464-.48-.16-.902-.28-.941-.222-.14.144.34 1.984.719 2.715.523 1.011 1.582 2 2.746 2.59l.98.464-1.16.02c-1.121 0-1.164.02-1.043.445.402 1.317 1.98 2.711 3.742 3.32l1.242.426-1.082.645a11.248 11.248 0 0 1-5.363 1.5c-.902.02-1.64.097-1.64.16 0 .203 2.44 1.336 3.863 1.781 4.261 1.317 9.328.746 13.129-1.496 2.703-1.601 5.402-4.777 6.664-7.855.683-1.637 1.363-4.633 1.363-6.07 0-.93.059-1.051 1.18-2.165.66-.648 1.28-1.355 1.402-1.558.2-.383.18-.383-.84-.04-1.703.606-1.941.524-1.101-.386.62-.645 1.359-1.82 1.359-2.164 0-.059-.297.039-.64.222-.36.204-1.16.508-1.762.688l-1.078.344-.98-.668c-.544-.364-1.302-.77-1.704-.89-1.02-.282-2.582-.243-3.504.081Zm-3.98 39.848c-15.825 0-28.657-12.828-28.657-28.656C3.82 16.652 16.652 3.82 32.477 3.82c15.828 0 28.656 12.832 28.656 28.657 0 15.828-12.828 28.656-28.656 28.656Zm0 0"/>
</svg>
